<svg id="_0190_seo" data-name="0190_seo" xmlns="http://www.w3.org/2000/svg" viewBox="0 0 500 500" data-imageid="seo-97" imageName="SEO" class="illustrations_image" style="width: 171px;"><defs><style>.cls-1_seo-97{fill:#68e1fd;}.cls-2_seo-97{fill:#093f68;}.cls-3_seo-97{fill:#fff;}.cls-4_seo-97{fill:#dfeaef;}.cls-5_seo-97{fill:#ffbc0e;}.cls-6_seo-97{fill:#70cc40;}</style></defs><g id="device_seo-97"><path class="cls-1_seo-97 targetColor" d="M49.83,323.85H450.17a0,0,0,0,1,0,0V344a9.31,9.31,0,0,1-9.31,9.31H59.14A9.31,9.31,0,0,1,49.83,344V323.85A0,0,0,0,1,49.83,323.85Z" style="fill: rgb(94, 43, 241);"/><path class="cls-2_seo-97" d="M432.34,355.2H67.66a19.76,19.76,0,0,1-19.74-19.74V323.85a1.9,1.9,0,0,1,1.91-1.91H450.17a1.9,1.9,0,0,1,1.91,1.91v11.61A19.76,19.76,0,0,1,432.34,355.2ZM51.75,325.77v9.69a15.93,15.93,0,0,0,15.91,15.91H432.34a15.93,15.93,0,0,0,15.91-15.91v-9.69Z"/><path class="cls-1_seo-97 targetColor" d="M85.07,119.83H414.93a8.26,8.26,0,0,1,8.26,8.26V323.85a0,0,0,0,1,0,0H76.81a0,0,0,0,1,0,0V128.09A8.26,8.26,0,0,1,85.07,119.83Z" style="fill: rgb(94, 43, 241);"/><path class="cls-2_seo-97" d="M423.19,325.77H76.81a1.92,1.92,0,0,1-1.92-1.92V135.65a17.76,17.76,0,0,1,17.75-17.74H407.36a17.76,17.76,0,0,1,17.75,17.74v188.2A1.92,1.92,0,0,1,423.19,325.77ZM78.72,321.94H421.28V135.65a13.93,13.93,0,0,0-13.92-13.91H92.64a13.93,13.93,0,0,0-13.92,13.91Z"/><rect class="cls-3_seo-97" x="102.71" y="143.84" width="294.59" height="157.2" rx="2.32"/><path class="cls-2_seo-97" d="M392.85,303H107.15a6.37,6.37,0,0,1-6.36-6.36V148.29a6.37,6.37,0,0,1,6.36-6.36h285.7a6.37,6.37,0,0,1,6.36,6.36V296.6A6.37,6.37,0,0,1,392.85,303Zm-285.7-157.2a2.53,2.53,0,0,0-2.53,2.53V296.6a2.53,2.53,0,0,0,2.53,2.53h285.7a2.53,2.53,0,0,0,2.53-2.53V148.29a2.53,2.53,0,0,0-2.53-2.53Z"/><ellipse class="cls-1_seo-97 targetColor" cx="250" cy="130.3" rx="2.32" ry="2.09" style="fill: rgb(94, 43, 241);"/><path class="cls-2_seo-97" d="M250,134.3a4,4,0,1,1,4.24-4A4.13,4.13,0,0,1,250,134.3Zm0-4.18a.47.47,0,0,0-.41.18.51.51,0,0,0,.41.17.47.47,0,0,0,.4-.17A.44.44,0,0,0,250,130.12Zm.41.18h0Z"/><path class="cls-2_seo-97" d="M269.58,334.39H230.42a10,10,0,0,1-8.14-4.15l-4.63-6.39h64.7l-4.63,6.39A10,10,0,0,1,269.58,334.39Z"/><path class="cls-2_seo-97" d="M269.58,336.31H230.42a12,12,0,0,1-9.69-4.94L216.09,325a1.92,1.92,0,0,1,1.56-3h64.7a1.92,1.92,0,0,1,1.56,3l-4.64,6.39A12,12,0,0,1,269.58,336.31ZM221.4,325.77l2.43,3.35a8.18,8.18,0,0,0,6.59,3.36h39.16a8.18,8.18,0,0,0,6.59-3.36l2.43-3.35Z"/><path class="cls-4_seo-97" d="M229.88,221H123.93a1.92,1.92,0,0,1-1.92-1.91v-41.9a1.91,1.91,0,0,1,1.92-1.91h106a1.91,1.91,0,0,1,1.92,1.91v41.9A1.92,1.92,0,0,1,229.88,221Zm-104-3.83H228V179.11H125.84Z"/><path class="cls-2_seo-97" d="M397.29,169.23H103.6a1.92,1.92,0,0,1,0-3.83H397.29a1.92,1.92,0,1,1,0,3.83Z"/><path class="cls-4_seo-97" d="M229.88,232.21H123.93a1.92,1.92,0,1,1,0-3.83h106a1.92,1.92,0,1,1,0,3.83Z"/><path class="cls-4_seo-97" d="M229.88,243.91H123.93a1.92,1.92,0,1,1,0-3.83h106a1.92,1.92,0,1,1,0,3.83Z"/><path class="cls-4_seo-97" d="M143.19,290.2H123.93a1.91,1.91,0,0,1-1.92-1.91v-11a1.91,1.91,0,0,1,1.92-1.91h19.26a1.9,1.9,0,0,1,1.91,1.91v11A1.9,1.9,0,0,1,143.19,290.2Zm-17.35-3.83h15.43v-7.14H125.84Z"/><path class="cls-4_seo-97" d="M172.09,290.2H152.82a1.9,1.9,0,0,1-1.91-1.91V263.11a1.91,1.91,0,0,1,1.91-1.92h19.27a1.91,1.91,0,0,1,1.91,1.92v25.18A1.9,1.9,0,0,1,172.09,290.2Zm-17.35-3.83h15.43V265H154.74Z"/><path class="cls-4_seo-97" d="M201,290.2H181.72a1.91,1.91,0,0,1-1.92-1.91V254.86a1.92,1.92,0,0,1,1.92-1.92H201a1.92,1.92,0,0,1,1.91,1.92v33.43A1.91,1.91,0,0,1,201,290.2Zm-17.35-3.83h15.43v-29.6H183.64Z"/><path class="cls-4_seo-97" d="M229.88,290.2H210.62a1.91,1.91,0,0,1-1.92-1.91V264.56a1.91,1.91,0,0,1,1.92-1.91h19.26a1.91,1.91,0,0,1,1.92,1.91v23.73A1.91,1.91,0,0,1,229.88,290.2Zm-17.35-3.83H228V266.48H212.53Z"/><path class="cls-4_seo-97" d="M195,156.47H123.93a1.92,1.92,0,1,1,0-3.83H195a1.92,1.92,0,1,1,0,3.83Z"/></g><g id="magnifying-glass_seo-97"><rect class="cls-2_seo-97" x="362.72" y="279.87" width="19.35" height="35.36" transform="translate(848.24 325.74) rotate(144.76)"/><path class="cls-2_seo-97" d="M374.7,319.49a1.91,1.91,0,0,1-1.57-.81l-20.4-28.88a1.91,1.91,0,0,1-.32-1.43,1.94,1.94,0,0,1,.78-1.24L369,276a1.92,1.92,0,0,1,2.67.45l20.4,28.88a1.92,1.92,0,0,1,.32,1.43,1.94,1.94,0,0,1-.78,1.24L375.8,319.14A2,2,0,0,1,374.7,319.49ZM357,289.16l18.18,25.74L387.83,306,369.64,280.2Z"/><rect class="cls-5_seo-97" x="341.58" y="257.28" width="29.71" height="35.36" transform="translate(806.21 293.89) rotate(144.76)"/><path class="cls-2_seo-97" d="M354.51,299.88a1.9,1.9,0,0,1-1.57-.81l-20.4-28.88a1.91,1.91,0,0,1-.32-1.43,1.94,1.94,0,0,1,.78-1.24l24.27-17.14a1.92,1.92,0,0,1,2.67.46l20.39,28.88a1.91,1.91,0,0,1,.33,1.43,1.94,1.94,0,0,1-.78,1.24l-24.27,17.14A2,2,0,0,1,354.51,299.88Zm-17.73-30.33L355,295.29l21.14-14.93-18.19-25.74Z"/><rect class="cls-5_seo-97" x="388.25" y="300.52" width="29.71" height="80.99" rx="3.3" transform="translate(929.09 386.99) rotate(144.76)"/><path class="cls-2_seo-97" d="M415.87,382.09a8.51,8.51,0,0,1-1.42-.12,8.25,8.25,0,0,1-5.34-3.37l-39.42-55.82a8.25,8.25,0,0,1,2-11.49l13.93-9.83a8.24,8.24,0,0,1,11.48,2l39.43,55.82a8.25,8.25,0,0,1-2,11.49l-13.92,9.84h0A8.24,8.24,0,0,1,415.87,382.09ZM419.5,379h0Zm-29.15-75.23a4.41,4.41,0,0,0-2.54.8l-13.93,9.84a4.4,4.4,0,0,0-1.06,6.15l39.42,55.82a4.42,4.42,0,0,0,6.15,1.06l13.93-9.84a4.4,4.4,0,0,0,1.06-6.15L394,305.64A4.43,4.43,0,0,0,390.35,303.78Z"/><path class="cls-5_seo-97" d="M261.81,262a69.83,69.83,0,1,0,16.75-97.33A69.83,69.83,0,0,0,261.81,262Z"/><path class="cls-2_seo-97" d="M319,293.49a73.37,73.37,0,0,1-12.32-1.05A71.54,71.54,0,1,1,319,293.49Zm-.3-139.69a67.92,67.92,0,0,0-55.33,107.11h0a67.92,67.92,0,1,0,67-106.11A68.69,68.69,0,0,0,318.7,153.8Z"/><circle class="cls-6_seo-97" cx="318.84" cy="221.73" r="47.52"/><path class="cls-2_seo-97" d="M318.84,271.17a49.44,49.44,0,1,1,49.44-49.44A49.49,49.49,0,0,1,318.84,271.17Zm0-95a45.61,45.61,0,1,0,45.61,45.6A45.65,45.65,0,0,0,318.84,176.13Z"/><path class="cls-2_seo-97" d="M296.32,216.42a4.33,4.33,0,0,0-2-1.39,7.24,7.24,0,0,0-2.41-.45,6.62,6.62,0,0,0-1.38.15,5.2,5.2,0,0,0-1.33.5,2.81,2.81,0,0,0-1,.88,2.43,2.43,0,0,0,.55,3.26,8.58,8.58,0,0,0,2.37,1.14c1,.31,2,.63,3.09.94a12.66,12.66,0,0,1,3.08,1.34,7.32,7.32,0,0,1,2.38,2.32,7,7,0,0,1,.94,3.89,9.08,9.08,0,0,1-.86,4.05,8.28,8.28,0,0,1-2.34,2.86,9.78,9.78,0,0,1-3.42,1.69,15.71,15.71,0,0,1-9.13-.27,12.64,12.64,0,0,1-4.33-2.67l4.36-4.8a6.45,6.45,0,0,0,2.38,1.95,6.79,6.79,0,0,0,3,.68,6.54,6.54,0,0,0,1.51-.17,5.28,5.28,0,0,0,1.38-.53,3.06,3.06,0,0,0,1-.91,2.2,2.2,0,0,0,.37-1.29,2.37,2.37,0,0,0-1-2,9.27,9.27,0,0,0-2.42-1.24c-1-.34-2-.68-3.14-1a14.08,14.08,0,0,1-3.14-1.37,7.64,7.64,0,0,1-2.42-2.28,6.54,6.54,0,0,1-1-3.74,8.3,8.3,0,0,1,.88-3.92,8.54,8.54,0,0,1,2.36-2.83,10.17,10.17,0,0,1,3.4-1.71,13.86,13.86,0,0,1,4-.57,15.37,15.37,0,0,1,4.55.67,10.33,10.33,0,0,1,4,2.24Z"/><path class="cls-2_seo-97" d="M305.36,209.63h18.9v5.65H311.49v5.19h12.06v5.66H311.49v5.66H325v5.66h-19.6Z"/><path class="cls-2_seo-97" d="M328.38,223.54a15.88,15.88,0,0,1,1.12-6.06,13.31,13.31,0,0,1,3.13-4.61,13.72,13.72,0,0,1,4.75-2.93,18.25,18.25,0,0,1,12,0,13.81,13.81,0,0,1,4.75,2.93,13.16,13.16,0,0,1,3.12,4.61,16.93,16.93,0,0,1,0,12.11,13.16,13.16,0,0,1-3.12,4.61,13.66,13.66,0,0,1-4.75,2.93,18.25,18.25,0,0,1-12,0,13.57,13.57,0,0,1-4.75-2.93,13.31,13.31,0,0,1-3.13-4.61A15.86,15.86,0,0,1,328.38,223.54Zm6.37,0a10.09,10.09,0,0,0,.61,3.59,8.13,8.13,0,0,0,1.75,2.83,8,8,0,0,0,2.73,1.87,9.9,9.9,0,0,0,7.11,0,8,8,0,0,0,2.73-1.87,8.28,8.28,0,0,0,1.75-2.83,10.84,10.84,0,0,0,0-7.17,8.27,8.27,0,0,0-1.75-2.85,8,8,0,0,0-2.73-1.87,9.9,9.9,0,0,0-7.11,0,8,8,0,0,0-2.73,1.87,8.12,8.12,0,0,0-1.75,2.85A10.16,10.16,0,0,0,334.75,223.54Z"/></g><g id="graph_seo-97"><rect class="cls-3_seo-97" x="54.16" y="215.09" width="89.83" height="62.96" rx="1.75"/><path class="cls-2_seo-97" d="M140.64,280H57.51a5.27,5.27,0,0,1-5.26-5.27V218.44a5.27,5.27,0,0,1,5.26-5.27h83.13a5.27,5.27,0,0,1,5.27,5.27V274.7A5.28,5.28,0,0,1,140.64,280ZM57.51,217a1.44,1.44,0,0,0-1.43,1.44V274.7a1.43,1.43,0,0,0,1.43,1.43h83.13a1.43,1.43,0,0,0,1.44-1.43V218.44a1.44,1.44,0,0,0-1.44-1.44Z"/><path class="cls-2_seo-97" d="M131.15,265.8H68.92A1.91,1.91,0,0,1,67,263.89V230.71a1.92,1.92,0,0,1,3.83,0V262h60.32a1.92,1.92,0,1,1,0,3.83Z"/><path class="cls-2_seo-97" d="M79.7,257.48a1.91,1.91,0,0,1-1-3.57l43.09-24.86a1.92,1.92,0,0,1,1.92,3.32l-43.1,24.86A1.93,1.93,0,0,1,79.7,257.48Z"/><path class="cls-2_seo-97" d="M120.45,242.81a1.91,1.91,0,0,1-1.72-2.75l4.48-9.29-11.67-1.15a1.91,1.91,0,1,1,.38-3.81l14.4,1.42a1.92,1.92,0,0,1,1.54,2.74l-5.69,11.76A1.91,1.91,0,0,1,120.45,242.81Z"/></g></svg>