<svg id="_0078_team_presentation" xmlns="http://www.w3.org/2000/svg" xmlns:xlink="http://www.w3.org/1999/xlink" viewBox="0 0 500 500" data-imageid="team-presentation-72" imageName="Team Presentation" class="illustrations_image" style="width: 171px;"><defs><style>.cls-1_team-presentation-72{fill:none;}.cls-1_team-presentation-72,.cls-2_team-presentation-72,.cls-3_team-presentation-72,.cls-4_team-presentation-72,.cls-5_team-presentation-72,.cls-6_team-presentation-72,.cls-7_team-presentation-72,.cls-8_team-presentation-72,.cls-9_team-presentation-72,.cls-10_team-presentation-72,.cls-11_team-presentation-72,.cls-12_team-presentation-72,.cls-13_team-presentation-72,.cls-14_team-presentation-72,.cls-15_team-presentation-72,.cls-16_team-presentation-72,.cls-17_team-presentation-72,.cls-18_team-presentation-72,.cls-19_team-presentation-72,.cls-20_team-presentation-72,.cls-21_team-presentation-72,.cls-22_team-presentation-72,.cls-23_team-presentation-72,.cls-24_team-presentation-72,.cls-25_team-presentation-72,.cls-26_team-presentation-72{stroke-width:0px;}.cls-2_team-presentation-72{fill:url(#linear-gradient);}.cls-3_team-presentation-72{opacity:.18;}.cls-3_team-presentation-72,.cls-10_team-presentation-72,.cls-11_team-presentation-72,.cls-12_team-presentation-72{isolation:isolate;}.cls-3_team-presentation-72,.cls-11_team-presentation-72,.cls-26_team-presentation-72{fill:#68e1fd;}.cls-4_team-presentation-72{fill:url(#linear-gradient-11-team-presentation-72);}.cls-5_team-presentation-72{fill:url(#linear-gradient-13-team-presentation-72);}.cls-6_team-presentation-72{fill:url(#linear-gradient-10-team-presentation-72);}.cls-7_team-presentation-72{fill:url(#linear-gradient-16-team-presentation-72);}.cls-8_team-presentation-72{fill:url(#linear-gradient-15-team-presentation-72);}.cls-9_team-presentation-72{fill:url(#linear-gradient-14-team-presentation-72);}.cls-10_team-presentation-72{fill:url(#linear-gradient-12-team-presentation-72);}.cls-10_team-presentation-72,.cls-12_team-presentation-72{opacity:.69;}.cls-11_team-presentation-72{opacity:.47;}.cls-12_team-presentation-72{fill:url(#linear-gradient-5-team-presentation-72);}.cls-13_team-presentation-72{fill:url(#linear-gradient-4-team-presentation-72);}.cls-14_team-presentation-72{fill:url(#linear-gradient-2-team-presentation-72);}.cls-15_team-presentation-72{fill:url(#linear-gradient-3-team-presentation-72);}.cls-16_team-presentation-72{fill:url(#linear-gradient-8-team-presentation-72);}.cls-17_team-presentation-72{fill:url(#linear-gradient-9-team-presentation-72);}.cls-18_team-presentation-72{fill:url(#linear-gradient-7-team-presentation-72);}.cls-19_team-presentation-72{fill:url(#linear-gradient-6-team-presentation-72);}.cls-20_team-presentation-72{fill:#231f20;}.cls-21_team-presentation-72{fill:#cacccc;}.cls-22_team-presentation-72{fill:#b6765e;}.cls-23_team-presentation-72{fill:#fff;}.cls-24_team-presentation-72{fill:#ffb4a3;}.cls-25_team-presentation-72{fill:#f2fdff;}</style><linearGradient id="linear-gradient-team-presentation-72" x1="271.74" y1="2686.87" x2="279.61" y2="2381.95" gradientTransform="translate(-34.23 2880.44) scale(1 -1)" gradientUnits="userSpaceOnUse"><stop offset="0" stop-color="#231f20" stop-opacity="0"/><stop offset="1" stop-color="#231f20"/></linearGradient><linearGradient id="linear-gradient-2-team-presentation-72" x1="321.9" y1="2616.82" x2="329.28" y2="2739.92" gradientTransform="translate(-31 2945.64) scale(1 -1)" xlink:href="#linear-gradient-team-presentation-72"/><linearGradient id="linear-gradient-3-team-presentation-72" x1="333.77" y1="2852.04" x2="302.71" y2="2799.62" gradientTransform="translate(-31 2945.64) scale(1 -1)" xlink:href="#linear-gradient-team-presentation-72"/><linearGradient id="linear-gradient-4-team-presentation-72" x1="396.96" y1="2673.55" x2="416.46" y2="2658.08" xlink:href="#linear-gradient-team-presentation-72"/><linearGradient id="linear-gradient-5-team-presentation-72" x1="411.91" y1="2692.65" x2="426.55" y2="2696.51" gradientTransform="translate(-34.23 2880.44) scale(1 -1)" gradientUnits="userSpaceOnUse"><stop offset=".02" stop-color="#fff" stop-opacity="0"/><stop offset=".58" stop-color="#fff" stop-opacity=".39"/><stop offset=".68" stop-color="#fff" stop-opacity=".68"/><stop offset="1" stop-color="#fff"/></linearGradient><linearGradient id="linear-gradient-6-team-presentation-72" x1="411.59" y1="2656.72" x2="506.92" y2="2656.72" xlink:href="#linear-gradient-team-presentation-72"/><linearGradient id="linear-gradient-7-team-presentation-72" x1="401.99" y1="2710.32" x2="406.43" y2="2711.7" xlink:href="#linear-gradient-team-presentation-72"/><linearGradient id="linear-gradient-8-team-presentation-72" x1="416.3" y1="2729.7" x2="420.82" y2="2710.04" xlink:href="#linear-gradient-team-presentation-72"/><linearGradient id="linear-gradient-9-team-presentation-72" x1="434.61" y1="2495.35" x2="454.44" y2="2495.35" xlink:href="#linear-gradient-team-presentation-72"/><linearGradient id="linear-gradient-10-team-presentation-72" x1="381.22" y1="2497.87" x2="401.05" y2="2497.87" xlink:href="#linear-gradient-team-presentation-72"/><linearGradient id="linear-gradient-11-team-presentation-72" x1="407.59" y1="2734.97" x2="410.28" y2="2727.33" xlink:href="#linear-gradient-team-presentation-72"/><linearGradient id="linear-gradient-12-team-presentation-72" x1="409.41" y1="2679.01" x2="395.55" y2="2687.97" xlink:href="#linear-gradient-5-team-presentation-72"/><linearGradient id="linear-gradient-13-team-presentation-72" x1="162.09" y1="2669.69" x2="77.05" y2="2633.43" xlink:href="#linear-gradient-team-presentation-72"/><linearGradient id="linear-gradient-14-team-presentation-72" x1="189.82" y1="2717.53" x2="143.8" y2="2725.79" gradientTransform="translate(-31 2945.64) scale(1 -1)" xlink:href="#linear-gradient-team-presentation-72"/><linearGradient id="linear-gradient-15-team-presentation-72" x1="134.32" y1="2492.74" x2="162.9" y2="2492.74" xlink:href="#linear-gradient-team-presentation-72"/><linearGradient id="linear-gradient-16-team-presentation-72" x1="191.44" y1="2493.74" x2="220.06" y2="2493.74" xlink:href="#linear-gradient-team-presentation-72"/></defs><path id="background_team-presentation-72" class="cls-3_team-presentation-72 targetColor" d="M443.58,183.02c7.78,14.96,18.18,28.41,26.41,43.12,19,34.21,25.77,73.87,19.2,112.44-4.11,23.69-14.73,48.16-35.72,59.9-11.75,6.57-25.43,8.46-38.8,9.94-57.61,6.41-115.68,7.64-173.51,3.68-32.96-2.27-66.5-6.18-98.7,1.2-24.58,5.63-47.83,17.75-73,19.09-10.67.56-21.58-.9-31.26-5.42-29.28-13.69-39.56-52.28-31.44-83.53,8.12-31.26,30.01-56.77,51.23-81.11,11.97-13.74,23.93-27.47,35.91-41.19,7.29-8.39,14.71-16.92,19.05-27.12,5.52-12.96,5.64-27.46,7.43-41.44,5.53-43.2,30.68-85.9,70.9-102.59,29.66-12.3,63.14-9.4,95.1-6.28,39.77,3.88,81.9,8.98,113.09,36.37,13.47,11.83,26.38,20.3,28.18,38.6,2.23,22.82,5.14,43.6,15.93,64.34Z" style="fill: rgb(94, 43, 241);"/><path id="shadow_team-presentation-72" class="cls-2_team-presentation-72" d="M270.31,383.68c-4.7,2.25-10.07,2.3-15.3,2.4-27.69.57-272.41-2.52-176.55,14.04-.84,7.11,102.93,6.13,110.08,6.3,73.28,1.68,146.54.61,219.77-3.21,6.77-.35,14.47-1.21,18.46-6.71,4.89-6.71.84-16.89-6.16-21.38-7-4.49-15.77-4.87-24.07-5.09l-77.72-2.18c-8.23-.23-19.1-2.45-27.11.21-8.4,2.83-13.55,11.75-21.41,15.63Z"/><g id="data_board_team-presentation-72"><polygon class="cls-26_team-presentation-72 targetColor" points="256.8 282.85 245.14 392.35 249.8 391.96 266.89 284.79 274.85 252.56 293.68 253.34 296.6 376.82 302.42 376.82 302.13 252.46 314.36 252.46 328.83 393.52 334.84 392.93 322.8 242.07 278.92 228.88 254.85 251.78 256.8 282.85" style="fill: rgb(94, 43, 241);"/><polygon class="cls-26_team-presentation-72 targetColor" points="253.88 282.85 242.23 392.35 246.89 391.96 263.98 284.79 271.94 252.56 290.77 253.34 293.68 376.82 299.51 376.82 299.21 252.46 311.45 252.46 325.91 393.52 331.93 392.93 319.89 242.07 276.01 228.88 251.94 251.78 253.88 282.85" style="fill: rgb(94, 43, 241);"/><polygon class="cls-14_team-presentation-72" points="253.88 282.85 242.23 392.35 246.89 391.96 263.98 284.79 271.94 252.56 290.77 253.34 293.68 376.82 299.51 376.82 299.21 252.46 311.45 252.46 325.91 393.52 331.93 392.93 319.89 242.07 276.01 228.88 251.94 251.78 253.88 282.85"/><polygon class="cls-21_team-presentation-72" points="337.95 284.79 236.6 284.79 249.41 115.87 350.76 115.87 337.95 284.79"/><polygon class="cls-23_team-presentation-72" points="335.33 284.79 233.98 284.79 246.8 115.87 348.14 115.87 335.33 284.79"/><path class="cls-3_team-presentation-72 targetColor" d="M312.01,220.12c-.32,15.75-13.34,28.27-29.09,27.95-15.75-.32-28.27-13.34-27.95-29.09.31-15.53,12.99-27.96,28.52-27.96.96,0,1.91.06,2.85.15l-2.84,28.36,28.52.59Z" style="fill: rgb(94, 43, 241);"/><polygon class="cls-26_team-presentation-72 targetColor" points="300.67 100.73 300.1 115.87 298.22 115.76 289.03 115.29 290.17 100.4 290.19 100.15 300.67 100.73" style="fill: rgb(94, 43, 241);"/><polygon class="cls-15_team-presentation-72" points="298.78 100.87 298.22 115.76 289.03 115.29 290.17 100.4 298.78 100.87"/><path class="cls-3_team-presentation-72 targetColor" d="M329.67,142.04h-66.01c-1.82.05-3.34-1.38-3.4-3.2,0-.2,0-.41.04-.61h0c.34-2.16,2.18-3.77,4.37-3.81h66.01c1.82-.05,3.34,1.38,3.4,3.2,0,.2,0,.41-.04.61h0c-.34,2.16-2.18,3.77-4.37,3.81Z" style="fill: rgb(94, 43, 241);"/><path class="cls-3_team-presentation-72 targetColor" d="M327.56,158.33h-66.01c-1.83.05-3.35-1.39-3.4-3.21,0-.2,0-.4.04-.6h0c.34-2.16,2.18-3.77,4.37-3.81h66.01c1.83-.05,3.34,1.39,3.39,3.22,0,.2,0,.4-.04.59h0c-.34,2.16-2.18,3.77-4.37,3.82Z" style="fill: rgb(94, 43, 241);"/><path class="cls-3_team-presentation-72 targetColor" d="M325.41,174.9h-66.01c-1.83.05-3.34-1.39-3.39-3.22,0-.2,0-.4.04-.59h0c.34-2.16,2.19-3.77,4.38-3.81h66.01c1.83-.05,3.34,1.39,3.39,3.22,0,.2,0,.4-.04.59h0c-.34,2.16-2.19,3.77-4.38,3.81Z" style="fill: rgb(94, 43, 241);"/><path class="cls-11_team-presentation-72 targetColor" d="M314.55,217.42c.01.18.01.37,0,.55l-28.53-.55,2.85-28.4c14.58,1.47,25.68,13.74,25.68,28.4Z" style="fill: rgb(94, 43, 241);"/></g><g id="character_2_team-presentation-72"><path class="cls-20_team-presentation-72" d="M368.63,256.64s-3.72,22.5-3.31,34.27c.59,16.6-6.53,86.56-6.53,86.56l6.36.62s15.37-46.73,14.15-60.98,5.54-34.95,5.54-34.95c0,0,13.84,49.27,16.52,53.4,2.69,4.13,7.82,45.62,7.82,45.62l11.26-.84s-3.52-41.39-10.86-54.6c0,0,3.52-66.98-8.23-75.96-11.75-8.98-32.73,6.85-32.73,6.85Z"/><path class="cls-24_team-presentation-72" d="M344.06,220.37l-23.3-14.47c-1.41.02-2.78-.44-3.89-1.31-1.63-1.18-3.58-1.68-5.24-2.83-2.69-1.86-3.61-5.36-4.33-8.55-.17-.6-.23-1.23-.18-1.85.07-.63.49-1.17,1.09-1.39.74-.07,1.48.16,2.05.64,2.3,1.38,4.97,1.97,7.55,2.52.16.05.33.05.5,0,.31-.15.27-.61.11-.92s-.39-.64-.3-.98c.14-.34.52-.53.88-.43.35.11.66.32.88.61,1.24,1.34,1.92,3.13,2.92,4.63.76,1.23,1.44,2.51,2.01,3.83l22.57,12.67s6.62,9.93-3.33,7.83Z"/><path class="cls-26_team-presentation-72 targetColor" d="M371.87,185.04l-21.43,27.38-25.43-13.43-2.26,7.95s24.88,18.35,28.15,18.35c5.24,0,15.19-9.23,15.19-9.23l5.78-31.02Z" style="fill: rgb(94, 43, 241);"/><path class="cls-13_team-presentation-72" d="M371.87,185.12l-21.43,27.39-4.66,1.41v8.54s5.54,3.01,8.59,1.85,11.67-8.14,11.67-8.14l5.82-31.05Z"/><path class="cls-26_team-presentation-72 targetColor" d="M411.39,211.62l-11.38-9.29s-7.7,19.3-5.25,27.4c1.25,4.14,2.95,9.46,4.31,13.65,1.3,4.03,2.3,7.02,2.3,7.02l-33.4,9.23s4.77-30.28-4.04-43.49c-2.82-4.2-7.71-7.95-5.26-12.72,2.45-4.77,12.41-20.98,18.75-21.15,0,0,5.47,2.86,7.99-1.54,0,0,7.47,1.59,11.01,3s20.14,13.21,24.53,19.3c4.39,6.09-9.55,8.59-9.55,8.59Z" style="fill: rgb(94, 43, 241);"/><path class="cls-12_team-presentation-72" d="M386.63,186.99c-.84,1.46-2.07,2.65-3.54,3.47-1.47.81-3.02,1.46-4.62,1.96,2.77-3.23,5.54-6.65,6.71-10.73.1-.34.22-.73.54-.84.2-.06.42-.06.62,0,1.86.24,2.43.34,1.9,2.01-.42,1.42-.96,2.81-1.62,4.14Z"/><path class="cls-19_team-presentation-72" d="M394.76,229.73c1.25,4.14,2.95,9.46,4.31,13.65l-4.82,3.36s-7.77.58-8.54.97-.78-7.19,2.52-8.39,1.17-15.72,1.17-15.72c0,0-.97-15.53.96-19.42,1.94-3.89,6.71-4.46,6.71-4.46l2.95,2.58s-7.72,19.36-5.27,27.43Z"/><path class="cls-25_team-presentation-72" d="M367.75,255.28c-.88,1.62-4.3,8.33-3.42,9.94,1.23,2.2,4.2,2.84,6.65,2.45,7.8-1.22,12.54-9.51,19.88-12.39,2.73-1.07,6.23-1.79,7.1-4.58.11-.67.32-1.31.62-1.91.36-.5.97-.8,1.32-1.32.85-1.37.48-3.17-.84-4.09-4.33,3.36-8.67,2.81-13.85,4.51-5.97,2.09-11.8,4.56-17.46,7.38Z"/><path class="cls-20_team-presentation-72" d="M367.95,163.12c-.4,1.86-.29,3.83-.9,5.63-.63,1.75-1.81,3.25-3.36,4.27-.19.13-.42.3-.42.55,0,.09.03.19.08.27.9,1.9,2.85,3.07,4.95,2.98.3-.05.62-.03.91.08.22.13.41.3.57.5,1.01.89,2.42,1.16,3.68.72,1.23-.45,2.36-1.12,3.36-1.97.24-.18.5-.4.5-.7-.02-.19-.1-.37-.23-.52-1.57-2.09-2.62-4.53-3.04-7.12-.27-2.17.13-4.46-.64-6.51-1.52-4.1-4.86-.96-5.46,1.83Z"/><path class="cls-18_team-presentation-72" d="M367.95,163.12c-.4,1.86-.29,3.83-.9,5.63-.63,1.75-1.81,3.25-3.36,4.27-.19.13-.42.3-.42.55,0,.09.03.19.08.27.9,1.9,2.85,3.07,4.95,2.98.3-.05.62-.03.91.08.22.13.41.3.57.5,1.01.89,2.42,1.16,3.68.72,1.23-.45,2.36-1.12,3.36-1.97.24-.18.5-.4.5-.7-.02-.19-.1-.37-.23-.52-1.57-2.09-2.62-4.53-3.04-7.12-.27-2.17.13-4.46-.64-6.51-1.52-4.1-4.86-.96-5.46,1.83Z"/><path class="cls-1_team-presentation-72" d="M378.32,176.92c-.39,2.3-.77,4.62-2.01,6.54,0,0-.04.05-.06.08.23-.93,1.42-5.44,1.68-5.97.11-.23.24-.45.39-.65Z"/><path class="cls-24_team-presentation-72" d="M385.83,170.81c0,.54,0,1.07-.04,1.6-.04,1.12-.07,2.23-.09,3.36,0,.51,0,1.02-.04,1.54,0,1.72-.14,3.44-.44,5.14-.61,2.93-2.1,5.6-4.27,7.66-1.33,1.18-2.76,2.23-4.28,3.16-.84.61-1.77,1.06-2.77,1.33-1.02.27-2.11-.06-2.82-.84-.76-.95-.55-2.35-.04-3.46,1.17-2.6,3.66-4.36,5.23-6.71h0s.04-.05.06-.08c1.23-1.91,1.62-4.2,2.01-6.54.55-3.36,1.11-6.6,4.2-8.51.7-.53,1.64-.62,2.43-.25.84.49.91,1.64.88,2.61Z"/><path class="cls-24_team-presentation-72" d="M386.61,173.02c-.02.95-.31,1.88-.84,2.68-.01.02-.02.05-.04.07-.95,1.94-2.18,3.73-3.65,5.32-1.51,1.62-3.61,2.57-5.82,2.62,0-.05,0-.11,0-.16h0s.04-.05.06-.08c1.23-1.91,1.62-4.2,2.01-6.54.84-1.2,2.21-1.92,3.42-2.79s2.58-1.76,4.04-1.68h.27c.14,0,.27.04.38.13.11.12.17.28.18.44Z"/><path class="cls-24_team-presentation-72" d="M371.25,157.32c-1.85,4.04-.94,8.76,0,13.11.37,1.68.78,3.51,1.92,4.84,1.85,2.15,5.22,2.46,7.81,1.32,3.98-1.75,6.12-6.02,7.74-10.07,1.36-3.36,2.59-6.87,2.77-10.51s-.84-7.47-3.46-10c-.97-.99-2.2-1.68-3.55-2-2.22-.46-4.48.44-6.55,1.38-2.52,1.13-5.03,2.45-6.61,4.68-2.48,3.49-1.94,8.21-1.31,12.45"/><path class="cls-20_team-presentation-72" d="M376.8,152.21c-.39-.08-.78-.08-1.17,0-.4.16-.76.42-1.03.76-2.06,2.37-3.5,5.22-4.2,8.29-.27,1.64-.92,3.19-1.9,4.52-.13.19-.33.33-.55.37-.32,0-.58-.23-.78-.47-3.36-4.1-3.65-10.02-2.11-15.1.27-.91.62-1.79,1.07-2.63,1.35-2.35,3.46-4.18,5.98-5.19,2.52-.98,5.22-1.41,7.91-1.25,1.68-2.84,5.44-3.73,8.71-3.36,4.13.44,7.89,2.57,10.4,5.87,2.5,3.38,3.12,7.8,1.65,11.74-.54,1.37-1.34,2.63-1.85,4-1.17,3.2-.73,6.76,1.17,9.58.57.91,1.39,1.63,2.36,2.09.99.45,2.15.31,3.01-.36-1.27,4.34-5.81,6.82-10.15,5.55-.6-.18-1.18-.42-1.72-.73-.22-.17-.5-.24-.77-.21-.19.09-.36.22-.49.39-1.09,1.14-3,.84-4.44.23-.39-.23-.83-.35-1.28-.34-.37.08-.72.25-1.02.49-1.68,1.07-3.66,1.59-5.65,1.47,2.15-.4,3.73-2.19,5.03-3.92,2.13-2.78,2.73-5.43,3.62-8.82.89-3.39,1.91-7.62-.3-10.34-1.45-1.78-3.37-3.11-5.55-3.84-1.07-.29-1.59.23-2.52.67-1.08.48-2.27.67-3.45.54Z"/><path class="cls-16_team-presentation-72" d="M405.51,171.04c-1.26,4.35-5.8,6.85-10.14,5.59-.62-.18-1.21-.43-1.77-.74-.22-.17-.5-.25-.77-.22-.2.08-.36.22-.49.39-1.1,1.13-3,.88-4.44.23-.39-.23-.83-.35-1.28-.34-.37.08-.72.25-1.02.48-1.68,1.08-3.66,1.6-5.65,1.48,2.15-.4,3.73-2.19,5.03-3.92,2.14-2.79,2.74-5.43,3.62-8.82.87-3.39,1.91-7.62-.29-10.34-1.45-1.78-3.38-3.11-5.55-3.84-.44-.13-.91-.11-1.33.07-.37.14-.72.39-1.19.6-1.09.48-2.29.65-3.47.51-.38-.08-.78-.08-1.16,0-.41.16-.76.42-1.03.76-1.26,1.31-2.36,2.75-3.28,4.31-.66,1.11-1.16,2.31-1.48,3.57-.43,1.68-.21,3.59-1.33,4.93-.13.2-.33.33-.56.37-.31,0-.57-.23-.77-.47-3.36-4.1-3.65-10.02-2.1-15.1.26-.91.61-1.8,1.05-2.64,1.36-2.35,3.47-4.18,5.99-5.18,2.52-.98,5.22-1.41,7.91-1.25,1.68-2.84,5.44-3.73,8.71-3.36,4.13.44,7.89,2.57,10.4,5.87,2.5,3.39,3.12,7.82,1.65,11.77-.54,1.36-1.33,2.62-1.85,3.99-1.17,3.2-.73,6.76,1.17,9.58.57.91,1.39,1.63,2.36,2.09,1,.45,2.18.31,3.04-.38Z"/><path class="cls-24_team-presentation-72" d="M420.66,206.74c.1.05-2.69,6.91-2.85,7.31l-8.68,22.21-3.23,8.28c-.24.63-.59,1.28-.76,1.93-.91,3.3-.32,6.59-2.27,9.67-.6,1.08-1.58,1.91-2.74,2.32-1.21.38-2.52-.16-3.12-1.28-.43-1.02,0-2.19.44-3.23.51-1.33.93-2.69,1.27-4.07.05-.18.05-.37,0-.55-.17-.6-1.05-.5-1.58-.84-.53-.42-.68-1.16-.37-1.76.32-.57.74-1.08,1.23-1.52,1.99-2.13,2.4-4.79,3.05-7.5.7-2.95,1.42-5.9,2.16-8.85,1.05-4.26,2.11-8.53,3.26-12.78.51-1.9.84-5.15,2.11-6.75,1.18-1.43,7.45-4.91,12.11-2.59Z"/><path class="cls-26_team-presentation-72 targetColor" d="M348.86,383.21c-.79.51-1.4,1.26-1.75,2.13-.33.9-.02,1.91.76,2.47.44.22.93.34,1.43.34,3.76.26,7.53.22,11.29-.13.86-.04,1.71-.21,2.52-.5.55-.25,1.08-.56,1.57-.91,1.66-.64,2.56-2.44,2.07-4.15l-.57-4.29c0-.38-.15-.74-.4-1.02-.28-.19-.61-.28-.94-.26-3.22-.15-4.98-.16-7.55,1.68-2.57,1.84-5.83,2.73-8.42,4.64Z" style="fill: rgb(94, 43, 241);"/><path class="cls-26_team-presentation-72 targetColor" d="M402.26,385.74c-.79.51-1.4,1.25-1.75,2.12-.33.9-.02,1.92.76,2.48.44.22.93.33,1.43.34,3.76.26,7.53.22,11.29-.13.86-.04,1.71-.21,2.52-.5.55-.25,1.08-.56,1.57-.92.91-.48,1.64-1.26,2.06-2.21.13-.64.13-1.29,0-1.93l-.57-4.29c0-.38-.15-.74-.4-1.02-.28-.19-.61-.28-.94-.26-3.22-.16-4.98-.17-7.55,1.68-2.57,1.85-5.82,2.73-8.41,4.64Z" style="fill: rgb(94, 43, 241);"/><path class="cls-17_team-presentation-72" d="M402.26,385.74c-.79.51-1.4,1.25-1.75,2.12-.33.9-.02,1.92.76,2.48.44.22.93.33,1.43.34,3.76.26,7.53.22,11.29-.13.86-.04,1.71-.21,2.52-.5.55-.25,1.08-.56,1.57-.92.91-.48,1.64-1.26,2.06-2.21.13-.64.13-1.29,0-1.93l-.57-4.29c0-.38-.15-.74-.4-1.02-.28-.19-.61-.28-.94-.26-3.22-.16-4.98-.17-7.55,1.68-2.57,1.85-5.82,2.73-8.41,4.64Z"/><path class="cls-6_team-presentation-72" d="M348.86,383.21c-.79.51-1.4,1.26-1.75,2.13-.33.9-.02,1.91.76,2.47.44.22.93.34,1.43.34,3.76.26,7.53.22,11.29-.13.86-.04,1.71-.21,2.52-.5.55-.25,1.08-.56,1.57-.91,1.66-.64,2.56-2.44,2.07-4.15l-.57-4.29c0-.38-.15-.74-.4-1.02-.28-.19-.61-.28-.94-.26-3.22-.15-4.98-.16-7.55,1.68-2.57,1.84-5.83,2.73-8.42,4.64Z"/><path class="cls-4_team-presentation-72" d="M381.49,151.09c-.37.14-.72.39-1.19.6-1.09.48-2.29.65-3.47.51-.38-.08-.78-.08-1.16,0-.41.16-.76.42-1.03.76-1.26,1.31-2.36,2.75-3.28,4.31h-.08s.2-6.56,3.62-8.75c3.42-2.19,6.55,2.19,6.55,2.19l.04.37Z"/><path class="cls-10_team-presentation-72" d="M363.03,206.23c.49-1,1.1-1.92,1.83-2.76l3.54-4.42c.62-.68,1.09-1.49,1.36-2.37.25-1.1-.12-2.22-.13-3.36,0-2.38,1.52-4.52,3.36-6.02.2-.16,3.55-4.14,3.65-4.37.29-.69-2.05.43-2.69.84-3.42,1.96-4.44,3.78-5.82,5.46-4.69,5.67-7.13,9.38-9.61,16.31-.25.63-.39,1.29-.42,1.96,0,1.37,1.49,4.3,3.16,4.2,1.56-.08,1.28-4.26,1.77-5.47Z"/><path class="cls-25_team-presentation-72" d="M374.16,193.74c-.18.09-.39.22-.39.43,0,.37.55.39.9.25,1.62-.62,3.19-1.37,4.69-2.23.39-.22.84-.45,1.25-.23.24.19.42.44.51.74.48,1.04,1.24,1.91,2.21,2.52l1.82-4.6c.5-1.12.86-2.3,1.07-3.51.1-.84.06-1.68.21-2.46.23-.77.37-1.56.42-2.36-.2-4.75-5.35,2.97-6.01,3.99-1.8,2.81-3.62,5.85-6.67,7.46Z"/><path class="cls-25_team-presentation-72" d="M375.37,184.85c-.8,1.53-1.44,3.14-1.91,4.81-.47,1.68-.42,3.45.14,5.1-1.32-.09-2.55-.69-3.43-1.68-.61.9-1.07,1.9-1.35,2.95-.42-2.31-.76-4.94.69-6.79.6-.77,1.46-1.31,2.08-2.06.46-.56.78-1.22,1.19-1.81.88-1.26,2.07-2.26,3.46-2.91-.1.85-.39,1.67-.86,2.39Z"/><polyline class="cls-26_team-presentation-72 targetColor" points="408.14 206.35 400.18 240.14 408.33 243.63 421.34 205.19" style="fill: rgb(94, 43, 241);"/><polygon class="cls-23_team-presentation-72" points="399.98 239.65 399.4 241.61 407.27 245.4 407.85 243.36 399.98 239.65"/><polygon class="cls-23_team-presentation-72" points="325.04 198.97 324.26 198.48 321.3 206.2 324.16 207.81 325.97 199.46 325.04 198.97"/></g><g id="character_1_team-presentation-72"><path class="cls-24_team-presentation-72" d="M172.37,372.7l.84,8.48s-3.26,4.92-7.49,5.24-5.69-1.72-5.69-1.72l.7-12.49"/><path class="cls-24_team-presentation-72" d="M113.28,373.6l-.84,8.72s3.36,5.03,7.69,5.37c4.34.34,5.87-1.76,5.87-1.76l-.74-12.84"/><path class="cls-26_team-presentation-72 targetColor" d="M123.72,183.02s-16.86,8.14-17.24,10.81c-.39,2.67,1.91,68.31,1.91,68.31,0,0,5.47,7.1,22.23,7.1s22.66-4.8,22.36-7.2c-.95-8.31,3.5-67.7,3.12-70.49-.38-2.79-15.94-8.48-15.94-8.48l-16.44-.05Z" style="fill: rgb(94, 43, 241);"/><path class="cls-5_team-presentation-72" d="M134.21,224.67s-20.31,3.64-21.57,2.37c-1.13-1.13-6.02-34.23-6.17-33.22-.27,1.92.84,33.44,1.48,51,10.42-3.16,32.24-14.21,32.24-14.21-1.62-2.33-3.64-4.34-5.98-5.94Z"/><path class="cls-24_team-presentation-72" d="M126.4,224.91c1.47-1.11,3-2.13,4.58-3.06,1.77-.94,9.78-1.76,11.22-1.32s.84,1.26-.9,1.59-3.16-.04-3.53.99,1.9,3.14,1.75,4.93-.1,1.68-4.2,3.07-7.96,3.3-9.01.13c-1.05-3.17-1.32-5.83.09-6.33Z"/><path class="cls-24_team-presentation-72" d="M123.78,172.82s-.13,5.87-.06,10.2c.05,3.21,1.15,9.37,7.99,9.37s7.63-7.85,7.51-9.37c-.08-1.1.44-3.36,0-6.85-.45-3.74-15.06-5.96-15.44-3.35Z"/><path class="cls-25_team-presentation-72" d="M123.68,182.47c-1.02-.41-2.18.01-2.69.98-1.03,1.72-1.09,5.17,0,9.87s2.01,5.87,2.01,5.87c0,0,4.48-6.34,7.63-6.6-.03.08-6.2-1.18-6.94-10.13Z"/><path class="cls-25_team-presentation-72" d="M139.27,182.47c1.02-.41,2.19.01,2.7.98,1.02,1.72,1.08,5.17,0,9.87-1.08,4.7-2.01,5.87-2.01,5.87,0,0-4.48-6.34-7.63-6.6,0,.08,6.21-1.18,6.94-10.13Z"/><path class="cls-20_team-presentation-72" d="M108.39,262.14s-1.25,9.73,1.14,49.25c2.23,36.81,2.87,62.6,2.87,62.6,0,0,.24,3,6.59,3.1,6.34.09,8.01-4.1,8.01-4.1l6.2-94.42,25.83,96.35s7.61,4.38,13.55,1.09c4.2-2.33-19.6-113.97-19.6-113.97,0,0-20.36,11.19-44.59.1Z"/><path class="cls-26_team-presentation-72 targetColor" d="M109.62,190.77c-2.4,1.64-4.47,3.71-6.11,6.11-2.67,3.94-7.07,37.03-5.03,45.99.84,3.78,32.06-10.36,32.06-10.36,0,0-.73-6.34-4.04-8.51,0,0-15.31,3.29-16.45,2.14s-.44-35.37-.44-35.37Z" style="fill: rgb(94, 43, 241);"/><path class="cls-24_team-presentation-72" d="M144.43,152.06s-1.68,5.24-.12,7.73c5.87,9.23,2.52,8.27.34,8.47-.27,0,.12,1.77-.68,5.15-.63,2.67,1.25,8.75-6.97,6.2-2.35-.73-13.76-3.94-14.57-11.01-1.02-8.83-6.44-20.02,4.25-23.75,12.82-4.48,17-1.01,17.75,7.2Z"/><path class="cls-22_team-presentation-72" d="M139.37,180.17s-8.33-3.08-12.1-4.8c0,0,7.85,7.45,11.89,7.39l.21-2.59Z"/><path class="cls-26_team-presentation-72 targetColor" d="M156.1,191.54s9.6,42.47,10.19,47.94c.59,5.47-6.4,8.2-9.53,7.31-6.94-1.96-5.87-13.82-5.87-13.82l5.22-41.43Z" style="fill: rgb(94, 43, 241);"/><path class="cls-26_team-presentation-72 targetColor" d="M166.06,237.91l9.75,31.49-6.62,4.71s-14.12-20.1-15.24-26.05c-1.12-5.96-1.52-14.17,4.37-14.02" style="fill: rgb(94, 43, 241);"/><path class="cls-24_team-presentation-72" d="M178.58,277.03c-.52-1.37-1.26-2.7-1.68-4.12-.24-.84-.21-1.75-.84-2.52-1.94-2.36-5.39-.84-6.25,1.62-.47,1.67-.35,3.45.36,5.03.63,1.59,1.55,3.05,2.31,4.58.83,1.5,1.25,3.2,1.21,4.92-.15.86-.26,1.72-.3,2.59-.01.28.07.56.23.79.45.55,1.35.23,1.92-.2,3.83-2.83,4.64-8.52,3.05-12.7Z"/><polygon class="cls-25_team-presentation-72" points="169.11 275.19 167.17 272.29 175.12 267.15 177.33 270.29 169.11 275.19"/><path class="cls-25_team-presentation-72" d="M127.9,222.22l3.73,10.74-3.17,1.75s-4.92-9.9-5.15-10.39,4.59-2.1,4.59-2.1Z"/><polygon class="cls-9_team-presentation-72" points="149.98 207.96 148.75 241.01 153.22 245.67 149.98 207.96"/><path class="cls-25_team-presentation-72" d="M126.4,193.81s4.37,11.75,4.88,12.7,4.2-12.25,4.2-12.25c0,0,1.47-2.14-4.49-1.9-1.64,0-3.24.51-4.58,1.44Z"/><path class="cls-25_team-presentation-72" d="M152.93,261.48s-12.71,3.46-18.75,3.24c-6.04-.22-25.84-4.2-25.84-4.2,0,0-2.2,8.51-1.04,9.35s7.07.32,15.46.64c8.39.32,13.5,4.2,20.2,4.02,6.7-.18,10.72-9.23,10.72-9.23l-.74-3.82Z"/><path class="cls-26_team-presentation-72 targetColor" d="M113.12,380.32c-.56-.39-6.38,3.4-9.53,5.58-1.68,1.13-3.46,2.57-3.5,4.56.06,1.52.94,2.88,2.29,3.57,1.34.65,2.81,1.01,4.3,1.03,4.84.23,9.69-.17,14.42-1.2,3.01-.59,6.49-1.73,7.39-4.67.34-1.54.2-3.14-.38-4.6-.5-1.58-1.49-4.51-2.43-3.53-1.6,1.68-6.65,3.33-12.57-.75Z" style="fill: rgb(94, 43, 241);"/><path class="cls-26_team-presentation-72 targetColor" d="M172.9,379.45c3.7,1.01,6.28,3.1,9.43,5.29,1.68,1.13,3.46,2.58,3.5,4.56-.06,1.52-.94,2.88-2.3,3.57-1.33.65-2.78,1-4.26,1.03-4.84.23-9.69-.17-14.42-1.2-3.01-.59-6.49-1.73-7.39-4.67-.34-1.54-.2-3.14.38-4.6.4-1.38,1.21-2.61,2.34-3.51,0,0,3.65,2.89,6.05,3.01,1.89.09,6.68-3.49,6.68-3.49Z" style="fill: rgb(94, 43, 241);"/><path class="cls-8_team-presentation-72" d="M113.12,380.32c-.56-.39-6.38,3.4-9.53,5.58-1.68,1.13-3.46,2.57-3.5,4.56.06,1.52.94,2.88,2.29,3.57,1.34.65,2.81,1.01,4.3,1.03,4.84.23,9.69-.17,14.42-1.2,3.01-.59,6.49-1.73,7.39-4.67.34-1.54.2-3.14-.38-4.6-.5-1.58-1.49-4.51-2.43-3.53-1.6,1.68-6.65,3.33-12.57-.75Z"/><path class="cls-7_team-presentation-72" d="M172.9,379.45c3.7,1.01,6.28,3.1,9.43,5.29,1.68,1.13,3.46,2.58,3.5,4.56-.06,1.52-.94,2.88-2.3,3.57-1.33.65-2.78,1-4.26,1.03-4.84.23-9.69-.17-14.42-1.2-3.01-.59-6.49-1.73-7.39-4.67-.34-1.54-.2-3.14.38-4.6.4-1.38,1.21-2.61,2.34-3.51,0,0,3.65,2.89,6.05,3.01,1.89.09,6.68-3.49,6.68-3.49Z"/><path class="cls-20_team-presentation-72" d="M136.56,151.24c2.52-1.26,5.29-1.82,7.85-2.93.72-.26,1.36-.69,1.85-1.27.43-.63.65-1.38.64-2.15.13-3.36-1.99-6.46-4.78-8.27s-6.19-2.47-9.52-2.69c-3.38-.33-6.8.11-9.99,1.29-5.1,2.17-8.68,6.87-9.4,12.37-.27,2.23.14,4.85,2.04,6.07-1.5,1.79-2.04,4.2-1.44,6.45.61,2.22,1.83,4.23,3.52,5.81.99.85,1.88,1.81,2.65,2.86,1.02,1.68,1.26,3.89,2.79,5.09.27.22.59.37.94.43,1.33.15,1.97-1.56,2.16-2.89l.47-3.41c.09-.38.07-.78-.06-1.16-.29-.65-1.13-.84-1.68-1.27-.7-.67-1.1-1.6-1.12-2.57-.22-.94-.06-1.93.44-2.76.75-.83,1.95-1.08,2.97-.64.99.46,1.79,1.24,2.29,2.22,1.43,2.52,2.1-4.2,2.33-5.03.67-2.45,2.8-4.41,5.03-5.56Z"/></g></svg>